<svg width="1920" height="1080" viewBox="0 0 1920 1080" xmlns="http://www.w3.org/2000/svg"><rect width="1920" height="1080" fill="#0d192b"/><path d="M 0,1080 C 0,1080 0,180 0,180 C 111.34871794871793,220.41282051282053 222.69743589743587,260.82564102564106 325,238 C 427.30256410256413,215.17435897435897 520.5589743589744,129.11025641025643 637,127 C 753.4410256410256,124.88974358974357 893.0666666666666,206.73333333333335 988,216 C 1082.9333333333334,225.26666666666665 1133.174358974359,161.95641025641024 1230,160 C 1326.825641025641,158.04358974358976 1470.2358974358974,217.44102564102565 1593,231 C 1715.7641025641026,244.55897435897435 1817.8820512820512,212.27948717948718 1920,180 C 1920,180 1920,1080 1920,1080 Z" fill="#3f78d5" opacity="0.09999999999999999"/><path d="M 0,1080 C 0,1080 0,360 0,360 C 112.59999999999997,343.6282051282051 225.19999999999993,327.2564102564102 342,340 C 458.80000000000007,352.7435897435898 579.8000000000001,394.60256410256414 692,383 C 804.1999999999999,371.39743589743586 907.5999999999999,306.33333333333337 994,300 C 1080.4,293.66666666666663 1149.8000000000002,346.0641025641026 1252,349 C 1354.1999999999998,351.9358974358974 1489.1999999999998,305.4102564102564 1606,299 C 1722.8000000000002,292.5897435897436 1821.4,326.2948717948718 1920,360 C 1920,360 1920,1080 1920,1080 Z" fill="#3f78d5" opacity="0.19999999999999998"/><path d="M 0,1080 C 0,1080 0,540 0,540 C 112.72820512820513,498.98974358974357 225.45641025641027,457.97948717948714 347,480 C 468.54358974358973,502.02051282051286 598.902564102564,587.071794871795 682,591 C 765.097435897436,594.928205128205 800.9333333333332,517.7333333333333 915,489 C 1029.0666666666668,460.2666666666667 1221.3641025641025,479.99487179487176 1334,489 C 1446.6358974358975,498.00512820512824 1479.6102564102564,496.28717948717957 1564,503 C 1648.3897435897436,509.71282051282043 1784.1948717948717,524.8564102564102 1920,540 C 1920,540 1920,1080 1920,1080 Z" fill="#3f78d5" opacity="0.3"/><path d="M 0,1080 C 0,1080 0,720 0,720 C 98.56410256410254,696.2948717948718 197.12820512820508,672.5897435897435 297,686 C 396.8717948717949,699.4102564102565 498.0512820512821,749.9358974358976 606,753 C 713.9487179487179,756.0641025641024 828.6666666666667,711.6666666666666 933,701 C 1037.3333333333333,690.3333333333334 1131.2820512820513,713.3974358974358 1236,721 C 1340.7179487179487,728.6025641025642 1456.2051282051282,720.7435897435897 1572,718 C 1687.7948717948718,715.2564102564103 1803.897435897436,717.6282051282051 1920,720 C 1920,720 1920,1080 1920,1080 Z" fill="#3f78d5" opacity="0.39999999999999997"/><path d="M 0,1080 C 0,1080 0,900 0,900 C 89.88717948717951,925.6333333333333 179.77435897435902,951.2666666666667 292,953 C 404.225641025641,954.7333333333333 538.7897435897436,932.5666666666667 654,932 C 769.2102564102564,931.4333333333333 865.0666666666666,952.4666666666666 963,935 C 1060.9333333333334,917.5333333333334 1160.94358974359,861.5666666666667 1266,858 C 1371.05641025641,854.4333333333333 1481.1589743589743,903.2666666666667 1591,919 C 1700.8410256410257,934.7333333333333 1810.4205128205128,917.3666666666667 1920,900 C 1920,900 1920,1080 1920,1080 Z" fill="#3f78d5" opacity="0.49999999999999994"/></svg>