<svg width="1920" height="1080" viewBox="0 0 1920 1080" xmlns="http://www.w3.org/2000/svg"><rect width="1920" height="1080" fill="#14253d"/><path d="M492.6268929897857,1113.9999999999998C458.4812308738255,1202.7519785931354,375.1976501880134,1326.2516957535925,357.39964269616473,1373.6725956290925C339.60163520431604,1421.0934955045925,430.51845379585535,1348.800220904028,385.8388480386935,1398.5253992530002C341.1592422815317,1448.2505776019723,188.08897153056307,1669.561808758863,89.32200815319393,1672.0236657229248C-9.444955224175189,1674.4855226869865,-122.5548288287858,1454.8996085530346,-206.76293222552127,1413.2965410373713C-290.97103562225675,1371.693473521708,-361.9595858555339,1462.9925637939339,-415.92661222721887,1422.4052606289447C-469.89363859890386,1381.8179574639555,-550.1840026115946,1240.232845126373,-530.5650904556311,1169.772722047436C-510.94617829966757,1099.312598968499,-316.4562462169328,1055.6075315550697,-298.21313929143776,999.6445221553226C-279.9700323659427,943.6815127555757,-441.2404023433585,884.099977492566,-421.10644890266076,833.9946656489542C-400.97249546196304,783.8893538053424,-265.98082815656045,713.3292107564799,-177.4094186472514,699.0126510936514C-88.8380091379424,684.6960914308228,20.94729703886925,765.72913611029,110.3220081531934,748.0953076719825C199.69671926751755,730.4614792336749,283.5135801655713,577.6987777307568,358.83884803869336,593.2096804638061C434.16411591181543,608.7205831968554,539.9756079000771,754.3623374809127,562.2736153919258,841.1607240702783C584.5716228837745,927.9591106596439,526.7725551057458,1025.2480214068642,492.6268929897857,1113.9999999999998C458.4812308738255,1202.7519785931354,375.1976501880134,1326.2516957535925,357.39964269616473,1373.6725956290925" fill="#00fff7"/></svg>