<svg width="1920" height="1080" viewBox="0 0 1920 1080" xmlns="http://www.w3.org/2000/svg"><rect width="1920" height="1080" fill="#3d1053"/><path d="M2165.813493046107,55.99999999999991C2166.4801597127735,117.81270150550782,2260.5367262498557,92.51570715492275,2246.3813728906052,150.45673942336987C2232.2260195313547,208.39777169181698,2147.091830520807,363.44795124613046,2080.8813728906052,403.6461936106826C2014.6709152604035,443.8444359752347,1900.7117602299302,420.85064761085016,1849.1186271093948,391.64619361068264C1797.5254939888594,362.4417396105151,1817.1716294037844,288.3605018781246,1771.322574167393,228.41946960967746C1725.4735189310015,168.47843734123038,1575.2494718263533,102.63982320322586,1574.0242956910463,32.00000000000004C1572.7991195557393,-38.639823203225774,1713.9300395328478,-160.22166774672485,1763.9715173555514,-195.41946960967738C1814.012995178255,-230.6172714726299,1823.7881867047588,-166.48620314878536,1874.2731626272678,-179.1868111777151C1924.7581385497767,-191.88741920664484,2005.5300045133822,-264.7510080445954,2066.8813728906052,-271.6231177832558C2128.2327412678283,-278.4952275219162,2225.8926861980217,-275.02332257355346,2242.3813728906052,-220.41946960967752C2258.870059583189,-165.81561664580158,2165.1468263794404,-5.812701505507995,2165.813493046107,55.99999999999991C2166.4801597127735,117.81270150550782,2260.5367262498557,92.51570715492275,2246.3813728906052,150.45673942336987" fill="#df6688"/></svg>